<?xml version="1.0" encoding="utf-8"?>
<!-- Generator: Adobe Illustrator 26.2.1, SVG Export Plug-In . SVG Version: 6.00 Build 0)  -->
<svg version="1.1" id="Layer_1" xmlns="http://www.w3.org/2000/svg" xmlns:xlink="http://www.w3.org/1999/xlink" x="0px" y="0px"
	 viewBox="0 0 288.61 170.84" style="enable-background:new 0 0 288.61 170.84;" xml:space="preserve">
<style type="text/css">
	.st0{fill:#010101;}
	.st1{fill:#D73A3E;}
</style>
<g>
	<g>
		<g>
			<path class="st0" d="M43.6,101.71h-0.09c-2.13,0-2.76,1.63-2.76,10.19v21.52c0,0.14-0.09,0.27-0.45,0.27h-1.36
				c-0.32,0-0.36-0.14-0.45-0.27L20.64,103.7h-0.05v18.48c0,7.38,1.13,10.51,4.76,10.51h0.59c0.36,0,0.41,0.09,0.41,0.23
				c0,0.14-0.05,0.27-0.41,0.27h-8.74c-0.27,0-0.41-0.05-0.41-0.23c0-0.23,0.09-0.27,0.41-0.27h0.09c2.13,0,2.76-1.63,2.76-10.19
				v-18.8c0-1.45-0.05-1.99-0.45-1.99h-2.17c-0.32,0-0.45-0.05-0.45-0.23c0-0.23,0.09-0.27,0.45-0.27h6.98
				c0.18,0,0.32,0.14,0.45,0.27l15.22,25.55h0.09v-14.81c0-7.38-1.09-10.51-4.71-10.51h-0.54c-0.27,0-0.41-0.05-0.41-0.23
				c0-0.23,0.09-0.27,0.41-0.27h8.7c0.32,0,0.41,0.09,0.41,0.23C44.01,101.66,43.92,101.71,43.6,101.71z"/>
			<path class="st0" d="M59.91,133.73c-8.38,0-12.96-7.47-12.96-16.4c0-9.15,4.08-16.67,12.82-16.67c8.43,0,13,7.47,13,16.4
				C72.77,126.21,68.65,133.73,59.91,133.73z M66.75,110.36c-0.36-4.58-1.09-9.24-6.75-9.24c-6.11,0-6.75,4.35-7.07,9.56
				c-0.27,4.71-0.32,8.83,0.05,13.36c0.32,4.58,1.09,9.24,6.75,9.24c6.12,0,6.75-4.35,7.02-9.56
				C67.07,119.01,67.11,114.89,66.75,110.36z"/>
			<path class="st0" d="M101.62,119.06h-5.34c-0.32,0-0.45,0.23-0.45,0.36v11.28c0,1.45,0.05,1.99,0.45,1.99h2.9
				c0.27,0,0.41,0.05,0.41,0.23c0,0.23-0.09,0.27-0.41,0.27H88.49c-0.27,0-0.41-0.05-0.41-0.23c0-0.23,0.09-0.27,0.41-0.27h2.17
				c0.41,0,0.45-0.54,0.45-1.99v-27c0-1.45-0.05-1.99-0.45-1.99h-2.17c-0.36,0-0.41-0.09-0.41-0.23c0-0.14,0.05-0.27,0.41-0.27
				h13.09c4.58,0,9.47,2.45,9.47,8.88C111.05,116.38,106.25,119.06,101.62,119.06z M100.94,101.71h-4.67
				c-0.32,0-0.45,0.14-0.45,0.27v16.26c0,0.18,0.09,0.27,0.41,0.27h4.76c3.03,0,4.8-1.9,4.8-8.43
				C105.79,103.83,104.12,101.71,100.94,101.71z"/>
			<path class="st0" d="M127.35,133.73c-8.38,0-12.96-7.47-12.96-16.4c0-9.15,4.08-16.67,12.82-16.67c8.43,0,13,7.47,13,16.4
				C140.22,126.21,136.1,133.73,127.35,133.73z M134.19,110.36c-0.36-4.58-1.09-9.24-6.75-9.24c-6.12,0-6.75,4.35-7.07,9.56
				c-0.27,4.71-0.32,8.83,0.05,13.36c0.32,4.58,1.09,9.24,6.75,9.24c6.12,0,6.75-4.35,7.02-9.56
				C134.51,119.01,134.55,114.89,134.19,110.36z"/>
			<path class="st0" d="M167.39,101.71h-0.14c-1.45,0-2.67,1.27-4.94,8.65l-7.07,23.06c-0.05,0.18-0.14,0.27-0.36,0.27h-1.27
				c-0.23,0-0.32-0.05-0.41-0.27l-9.83-29.31c-0.68-2.04-1-2.4-1.77-2.4h-0.82c-0.27,0-0.41-0.05-0.41-0.23
				c0-0.23,0.09-0.27,0.41-0.27h10.06c0.27,0,0.41,0.05,0.41,0.23c0,0.23-0.09,0.27-0.41,0.27h-1.9c-0.86,0-1.09,0.45-0.5,2.4
				l7.7,24.14h0.09l5.39-17.94c0.95-3.17,2.17-8.61-1.59-8.61h-1.09c-0.27,0-0.41-0.05-0.41-0.23c0-0.23,0.09-0.27,0.41-0.27h8.43
				c0.27,0,0.41,0.05,0.41,0.23C167.8,101.66,167.71,101.71,167.39,101.71z"/>
			<path class="st0" d="M191.08,123.09v9.83c0,0.18-0.09,0.27-0.41,0.27h-20.93c-0.27,0-0.41-0.05-0.41-0.23
				c0-0.23,0.09-0.27,0.41-0.27h2.17c0.41,0,0.45-0.54,0.45-1.99v-27c0-1.45-0.05-1.99-0.45-1.99h-2.17c-0.27,0-0.41-0.05-0.41-0.23
				c0-0.23,0.09-0.27,0.41-0.27h19.48c0.27,0,0.41,0.09,0.41,0.32v9.47c0,0.32-0.14,0.41-0.32,0.41c-0.18,0-0.27-0.09-0.27-0.41
				v-0.45c0-4.89-2.17-8.83-6.7-8.83h-4.8c-0.27,0-0.45,0.09-0.45,0.27v14.04c0,0.14,0.09,0.23,0.41,0.23h3.04
				c2.4,0,4.26-1.81,4.26-4.35v-0.41c0-0.32,0.09-0.41,0.27-0.41s0.27,0.09,0.27,0.41v10.01c0,0.32-0.09,0.41-0.27,0.41
				s-0.27-0.09-0.27-0.41v-0.36c0-2.63-1.86-4.44-4.26-4.44h-2.99c-0.32,0-0.45,0.09-0.45,0.27v15.45c0,0.14,0.09,0.27,0.41,0.27
				h4.53c6.75,0,8.47-5.8,8.47-9.2v-0.41c0-0.32,0.09-0.41,0.27-0.41S191.08,122.77,191.08,123.09z"/>
			<path class="st0" d="M212.28,128.57c0-2.26,0.05-3.8,0.05-6.07c0-3.44-0.86-5.84-4.53-5.84h-4.8c-0.32,0-0.45,0.14-0.45,0.27
				v13.77c0,1.45,0.05,1.99,0.45,1.99h2.13c0.32,0,0.41,0.05,0.41,0.23c0,0.23-0.09,0.27-0.41,0.27h-9.92
				c-0.27,0-0.41-0.05-0.41-0.23c0-0.23,0.09-0.27,0.41-0.27h2.17c0.41,0,0.45-0.54,0.45-1.99v-27c0-1.45-0.05-1.99-0.45-1.99h-2.17
				c-0.36,0-0.41-0.09-0.41-0.23c0-0.14,0.05-0.27,0.41-0.27h12.77c4.21,0,9.42,1.72,9.42,7.75c0,4.39-3.94,7.07-7.75,7.43v0.05
				c4.39,0.59,7.43,3.62,7.38,8.88v5.39c0,0.91,0,2.31,1.45,2.31c0.77,0,1.63-0.63,1.99-1.63c0.09-0.23,0.14-0.45,0.41-0.41
				c0.27,0.05,0.27,0.27,0.18,0.5c-0.41,1.27-1.63,2.27-3.49,2.27C214.46,133.73,212.28,131.65,212.28,128.57z M208.07,101.71h-5.07
				c-0.32,0-0.45,0.14-0.45,0.27v13.95c0,0.14,0.09,0.27,0.41,0.27h5.25c2.49,0,4.3-1.49,4.3-7.16
				C212.51,103.06,210.51,101.71,208.07,101.71z"/>
			<path class="st0" d="M238.83,133.19h-10.01c-0.36,0-0.41-0.14-0.41-0.27c0-0.14,0.05-0.23,0.41-0.23h2.22
				c0.41,0,0.45-0.54,0.45-1.99v-28.67c0-0.18-0.14-0.32-0.45-0.32h-2.99c-4.48,0-6.61,3.9-6.61,8.92v0.91
				c0,0.32-0.09,0.41-0.27,0.41s-0.32-0.09-0.32-0.41v-10.01c0-0.23,0.14-0.32,0.41-0.32h25.14c0.27,0,0.41,0.09,0.41,0.32v10.01
				c0,0.32-0.14,0.41-0.32,0.41s-0.27-0.09-0.27-0.41v-0.91c0-5.03-2.13-8.92-6.61-8.92h-2.94c-0.32,0-0.5,0.14-0.5,0.32v28.67
				c0,1.45,0.05,1.99,0.5,1.99h2.17c0.36,0,0.41,0.09,0.41,0.23C239.23,133.05,239.19,133.19,238.83,133.19z"/>
			<path class="st0" d="M277.01,101.71h-0.14c-2.63,0-3.71,2.13-5.35,4.71c-1.99,3.04-5.16,8.11-6.66,10.46
				c-0.18,0.32-0.18,0.41-0.18,0.77v13.05c0,1.45,0.05,1.99,0.45,1.99h2.13c0.32,0,0.41,0.05,0.41,0.23c0,0.23-0.09,0.27-0.41,0.27
				h-9.92c-0.27,0-0.41-0.05-0.41-0.23c0-0.23,0.09-0.27,0.41-0.27h2.17c0.41,0,0.45-0.54,0.45-1.99v-12.68
				c0-0.23-0.05-0.5-0.23-0.77l-7.84-12.73c-1.59-2.49-1.95-2.81-2.72-2.81h-0.59c-0.27,0-0.41-0.05-0.41-0.23
				c0-0.23,0.09-0.27,0.41-0.27h10.51c0.27,0,0.41,0.05,0.41,0.23c0,0.23-0.09,0.27-0.41,0.27h-2.22c-0.86,0-0.95,0.59,0.54,2.94
				l7.16,11.64c1.9-2.99,5.16-8.47,6.48-10.92c1.09-2.13,0.45-3.67-1.81-3.67h-0.72c-0.27,0-0.41-0.05-0.41-0.23
				c0-0.23,0.09-0.27,0.41-0.27h8.47c0.27,0,0.41,0.05,0.41,0.23C277.42,101.66,277.33,101.71,277.01,101.71z"/>
		</g>
	</g>
	<g>
		<g>
			<path class="st1" d="M19.82,140.91h1.56l6.04,8.67h0.03v-8.67h1.24v10.44h-1.56l-6.04-8.67h-0.03v8.67h-1.24V140.91z"/>
			<path class="st1" d="M53.82,151.61c-0.8,0-1.53-0.14-2.19-0.41s-1.24-0.66-1.72-1.14c-0.49-0.49-0.86-1.07-1.14-1.74
				c-0.27-0.67-0.41-1.4-0.41-2.19c0-0.79,0.14-1.52,0.41-2.19c0.27-0.67,0.65-1.25,1.14-1.74c0.49-0.49,1.06-0.87,1.72-1.14
				s1.39-0.41,2.19-0.41c0.8,0,1.53,0.14,2.19,0.41c0.66,0.28,1.24,0.66,1.72,1.14c0.49,0.49,0.86,1.07,1.14,1.74
				c0.27,0.67,0.41,1.4,0.41,2.19c0,0.79-0.14,1.52-0.41,2.19c-0.27,0.67-0.65,1.25-1.14,1.74c-0.49,0.49-1.06,0.87-1.72,1.14
				C55.35,151.47,54.62,151.61,53.82,151.61z M53.82,150.46c0.61,0,1.17-0.11,1.67-0.34c0.51-0.23,0.94-0.54,1.3-0.93
				c0.36-0.39,0.65-0.85,0.85-1.38c0.2-0.53,0.3-1.09,0.3-1.69c0-0.6-0.1-1.16-0.3-1.69c-0.2-0.53-0.48-0.98-0.85-1.38
				c-0.36-0.39-0.8-0.7-1.3-0.93s-1.06-0.34-1.67-0.34c-0.61,0-1.17,0.11-1.67,0.34c-0.51,0.23-0.94,0.54-1.3,0.93
				c-0.36,0.39-0.65,0.85-0.85,1.38c-0.2,0.53-0.3,1.09-0.3,1.69c0,0.6,0.1,1.16,0.3,1.69c0.2,0.53,0.48,0.99,0.85,1.38
				c0.36,0.39,0.8,0.7,1.3,0.93C52.66,150.35,53.22,150.46,53.82,150.46z"/>
			<path class="st1" d="M78.96,140.91h1.56l6.04,8.67h0.03v-8.67h1.24v10.44h-1.56l-6.04-8.67H80.2v8.67h-1.24V140.91z"/>
			<path class="st1" d="M107.47,147.28h3.61v1.06h-3.61V147.28z"/>
			<path class="st1" d="M130.71,140.91h3.1c0.48,0,0.94,0.05,1.38,0.14c0.44,0.09,0.83,0.25,1.16,0.47
				c0.34,0.22,0.61,0.52,0.81,0.88c0.2,0.37,0.3,0.82,0.3,1.36c0,0.57-0.11,1.04-0.32,1.41c-0.22,0.37-0.49,0.67-0.83,0.88
				c-0.34,0.22-0.71,0.37-1.11,0.46c-0.4,0.09-0.79,0.13-1.15,0.13h-2.09v4.69h-1.24V140.91z M131.95,145.51h2.09
				c0.62,0,1.12-0.14,1.51-0.42s0.58-0.72,0.58-1.3s-0.19-1.02-0.58-1.3c-0.39-0.28-0.89-0.42-1.51-0.42h-2.09V145.51z"/>
			<path class="st1" d="M157.14,140.91h2.67c0.5,0,1,0.03,1.5,0.09c0.5,0.06,0.94,0.19,1.33,0.38c0.39,0.2,0.71,0.48,0.96,0.86
				c0.25,0.38,0.37,0.89,0.37,1.54c0,0.77-0.23,1.39-0.69,1.86c-0.46,0.47-1.1,0.77-1.92,0.9l2.96,4.81h-1.52l-2.83-4.69h-1.59v4.69
				h-1.24V140.91z M158.38,145.51h1.11c0.34,0,0.7-0.01,1.07-0.03s0.71-0.08,1.02-0.19c0.31-0.11,0.57-0.28,0.77-0.51
				c0.2-0.23,0.3-0.56,0.3-0.99c0-0.37-0.07-0.67-0.22-0.9c-0.15-0.23-0.34-0.4-0.58-0.52c-0.24-0.12-0.51-0.2-0.81-0.24
				c-0.3-0.04-0.6-0.06-0.91-0.06h-1.74V145.51z"/>
			<path class="st1" d="M188.69,151.61c-0.8,0-1.53-0.14-2.19-0.41c-0.66-0.28-1.24-0.66-1.72-1.14c-0.49-0.49-0.86-1.07-1.13-1.74
				c-0.27-0.67-0.41-1.4-0.41-2.19c0-0.79,0.13-1.52,0.41-2.19c0.27-0.67,0.65-1.25,1.13-1.74c0.49-0.49,1.06-0.87,1.72-1.14
				c0.66-0.28,1.39-0.41,2.19-0.41c0.8,0,1.53,0.14,2.19,0.41c0.66,0.28,1.24,0.66,1.72,1.14c0.49,0.49,0.87,1.07,1.14,1.74
				c0.27,0.67,0.41,1.4,0.41,2.19c0,0.79-0.13,1.52-0.41,2.19c-0.27,0.67-0.65,1.25-1.14,1.74c-0.49,0.49-1.06,0.87-1.72,1.14
				C190.22,151.47,189.49,151.61,188.69,151.61z M188.69,150.46c0.61,0,1.17-0.11,1.67-0.34c0.51-0.23,0.94-0.54,1.3-0.93
				c0.36-0.39,0.65-0.85,0.85-1.38c0.2-0.53,0.3-1.09,0.3-1.69c0-0.6-0.1-1.16-0.3-1.69c-0.2-0.53-0.48-0.98-0.85-1.38
				c-0.36-0.39-0.8-0.7-1.3-0.93s-1.06-0.34-1.67-0.34c-0.61,0-1.17,0.11-1.67,0.34c-0.51,0.23-0.94,0.54-1.31,0.93
				c-0.36,0.39-0.65,0.85-0.85,1.38c-0.2,0.53-0.3,1.09-0.3,1.69c0,0.6,0.1,1.16,0.3,1.69c0.2,0.53,0.48,0.99,0.85,1.38
				c0.36,0.39,0.8,0.7,1.31,0.93C187.52,150.35,188.08,150.46,188.69,150.46z"/>
			<path class="st1" d="M213.83,140.91h6.47v1.15h-5.23v3.45h4.87v1.15h-4.87v4.69h-1.24V140.91z"/>
			<path class="st1" d="M239.71,140.91h1.24v10.44h-1.24V140.91z"/>
			<path class="st1" d="M268.24,142.06h-3.45v9.29h-1.24v-9.29h-3.45v-1.15h8.14V142.06z"/>
		</g>
	</g>
	<g id="KNSWNW_00000090272193899265170100000007727790380737112198_">
		<g>
			<g>
				<path class="st1" d="M87.95,46c1.42-0.09,2.83-0.19,4.25-0.28c6.33-0.43,12.56,0,18.62,2.01c3.45,1.15,6.55,2.89,9.07,5.54
					c1.38,1.45,0.88,3.19-1.08,3.7c-1.5,0.39-3.08,0.46-4.56,0.89c-4.54,1.32-9.16,2.46-13.55,4.18
					c-9.07,3.56-18.02,3.04-27.07,0.09c-10.41-3.39-19.56-8.86-27.31-16.54c-7.29-7.22-12.61-15.73-15.67-25.58
					c-0.54-1.74-1.04-3.48-1.58-5.3c0.32-0.02,0.46-0.08,0.54-0.03c4.33,2.71,9.2,3.7,14.16,4.25c7.67,0.85,15.32,0.43,22.96-0.46
					c11.09-1.29,21.93-3.79,32.71-6.6c2.65-0.69,5.29-1.48,7.96-2.1c4-0.93,8.03-0.96,12.08-0.2c7.44,1.4,14.25,4.39,20.78,8.09
					c8.01,4.54,15,10.39,21.57,16.78c0.43,0.41,0.82,0.87,1.19,1.33c0.82,1.01,0.97,2.17,0.2,3.06c-0.7,0.8-1.69,1.25-2.8,0.91
					c-0.71-0.22-1.37-0.6-2.04-0.94c-12.74-6.36-26.04-9.68-40.37-7.66c-9.85,1.39-18.56,5.41-26.43,11.37
					c-1.31,1-2.57,2.06-3.86,3.1C87.81,45.75,87.88,45.88,87.95,46z"/>
				<path class="st1" d="M180.18,63.77c-1.98,0.11-3.86,0.28-5.74,0.3c-4.97,0.05-9.88-0.42-14.34-2.86
					c-1.37-0.75-2.62-1.79-3.79-2.84c-0.94-0.84-0.59-1.95,0.62-2.39c0.15-0.05,0.3-0.09,0.46-0.13c4.9-1.05,9.71-2.39,14.42-4.12
					c5.66-2.08,11.37-1.75,17.1-0.09c6.71,1.94,12.8,5.1,18.13,9.54c6.99,5.81,12.03,13.06,14.81,21.79
					c0.38,1.2,0.76,2.39,0.91,3.78c-0.65-0.33-1.28-0.7-1.95-0.99c-4.36-1.87-8.98-2.31-13.65-2.4c-5.21-0.11-10.42,0.21-15.53,1.22
					c-7.33,1.44-14.66,2.9-21.89,4.77c-4.13,1.07-8.18,2.01-12.43,1.33c-4.15-0.67-8.07-2.09-11.86-3.89
					c-7.78-3.7-14.43-8.95-20.45-15.04c-0.76-0.77-1.13-1.57-0.43-2.52c0.65-0.89,1.54-0.87,2.46-0.44
					c0.29,0.13,0.57,0.28,0.85,0.43c7,3.54,14.35,5.79,22.25,6.08c3.83,0.14,7.66-0.11,11.34-1.08c6.95-1.82,13.11-5.21,18.47-10.02
					C180.03,64.11,180.06,63.99,180.18,63.77z"/>
				<path class="st1" d="M106.07,36.21c3.87-1.5,7.87-1.93,11.94-1.94c0-0.1-0.01-0.2-0.01-0.3c-1.25,0.01-2.51-0.03-3.76,0.04
					c-1.35,0.08-2.69,0.23-4.03,0.41c-1.28,0.17-2.55,0.43-3.85,0.56c3.07-1.48,6.32-2.31,9.65-2.82
					c13.7-2.11,26.47,0.81,38.56,7.28c1.15,0.62,2.3,1.26,3.38,2c1.01,0.69,0.99,2.47-0.03,3.15c-0.82,0.55-1.73,0.99-2.8,0.55
					c-3.3-1.36-6.65-2.62-9.91-4.07c-5.03-2.24-10.18-4.08-15.53-5.38c-0.1-0.03-0.22-0.01-0.64-0.03c1.92,0.67,3.56,1.21,5.17,1.81
					c4.47,1.65,8.59,3.96,12.49,6.67c0.88,0.61,1.56,1.35,1.02,2.49c-0.5,1.06-1.56,1.2-2.47,0.87c-2-0.74-4.04-1.49-5.87-2.56
					c-6.25-3.67-12.78-6.62-19.89-8.16c-4.22-0.92-8.47-1.37-12.78-0.55C106.51,36.25,106.29,36.21,106.07,36.21z"/>
				<path class="st1" d="M165.49,72.12c-7.06,2.64-14.26,2.94-21.55,1.38c-5.37-1.15-10.4-3.16-15.09-6.01
					c-0.73-0.44-1.19-0.95-0.93-1.83c0.25-0.86,0.92-1.27,1.74-1.04c1.86,0.52,3.79,0.95,5.51,1.79c6.63,3.22,13.49,5.68,20.88,6.24
					c2.82,0.21,5.68-0.21,8.53-0.36C164.88,72.26,165.18,72.17,165.49,72.12z"/>
				<path class="st1" d="M106.21,36.85c2.39-0.13,4.79-0.46,7.17-0.36c8.26,0.33,15.38,3.61,21.71,8.77
					c0.58,0.47,1.06,1.04,0.66,1.85c-0.42,0.86-1.24,0.93-1.95,0.58c-1.56-0.76-3.15-1.53-4.58-2.51
					c-5.38-3.67-11.09-6.55-17.58-7.61c-1.78-0.29-3.61-0.29-5.42-0.42C106.23,37.05,106.22,36.95,106.21,36.85z"/>
				<path class="st1" d="M165.67,71.67c-2.39,0.24-4.78,0.66-7.17,0.69c-7.85,0.1-14.89-2.51-21.37-6.79
					c-0.26-0.17-0.6-0.35-0.72-0.61c-0.24-0.48-0.63-1.22-0.44-1.5c0.27-0.4,1.09-0.76,1.53-0.64c1.28,0.37,2.52,0.93,3.73,1.52
					c2.92,1.42,5.75,3.09,8.75,4.33c4.99,2.05,10.18,3.32,15.67,2.51C165.66,71.35,165.67,71.51,165.67,71.67z"/>
				<path class="st1" d="M165.61,70.35c-4.74,0.84-9.33,0.28-13.6-1.79c-2.34-1.13-4.49-2.67-6.67-4.12
					c-0.35-0.23-0.42-0.9-0.63-1.37c0.54-0.1,1.16-0.42,1.6-0.25c0.92,0.33,1.77,0.87,2.59,1.42c4.6,3.07,9.39,5.66,15.07,6.04
					C164.52,70.32,165.07,70.33,165.61,70.35z"/>
			</g>
		</g>
	</g>
</g>
</svg>
